# xmcd
#
# Track frame offsets: 
#        183
#        23138
#        39860
#        61865
#        80595
#        96573
#        124820
#        148430
#        170078
#
# Disc length: 2449 seconds
#
# Revision: 0
# Processed by: cddbd v1.5.1PL2 Copyright (c) Steve Scherf et al.
# Submitted via: ExactAudioCopy v0.95b3
#
DISCID=7e098f09
DTITLE=Jimmy Witherspoon - "Live" Vol. 1 Master of Blues
DYEAR=1990
DGENRE=Blues
TTITLE0=Gee, Baby, Ain't I Good To You
TTITLE1=I'm Gonna Move To The Outskirts Of Town
TTITLE2=C.C. Rider
TTITLE3=Ain't Nobody's Business
TTITLE4=Kansas City
TTITLE5=Don't You Miss Your Baby
TTITLE6=Money's Gettin' Cheaper
TTITLE7=If I Don't Get Well No More
TTITLE8=Come To Me Baby
EXTD=
EXTT0=
EXTT1=
EXTT2=
EXTT3=
EXTT4=
EXTT5=
EXTT6=
EXTT7=
EXTT8=
PLAYORDER=
